<svg id="Layer_1" data-name="Layer 1" xmlns="http://www.w3.org/2000/svg" viewBox="0 0 285.96 60.98"><defs><style>.cls-1{fill:#fff;}</style></defs><title>logo</title><path class="cls-1" d="M31.12,29.68a5.55,5.55,0,0,0-.38-2.5c-.86-1.52-4.49-2.35-7.38-2.3H22c.06,13.35.06,13.35.32,16.63,2,.05,2.41.05,4.44.21V43c-2.35,0-3.74-.1-7.27-.1-4,0-7.87.1-11.82.1v-1.3c1.87-.16,2.25-.21,4.12-.26.21-4.07.37-6.88.37-18.56,0-5,0-10-.21-14.91L7.58,7.47V6.22c2.94.11,15.24.21,20.38.21,4.82,0,6.63-.1,8.77-.21-.05,1.1,0,6.31,0,7.51H35.34c-.05-1.46-.11-3.49-2.78-4.74-1.87-.89-4.28-1.2-10.11-1.1-.27,4.74-.37,8.5-.48,15.53a12.76,12.76,0,0,0,1.44.05c1.71,0,5.19-.16,6.63-1.3.48-.42,1.07-.89,1.12-3.49h1.39l-.11,5.84.11,5.16Z" transform="translate(-7.58 -5.49)"/><path class="cls-1" d="M46.3,29.05c.54-1.51,5-12.77,6-15.12.8,2.4,4.06,12.93,4.76,15.07-1.07,0-1.82.05-3.58.05ZM57.43,43c3.1-.1,4.28-.16,9.84-.16,3.85,0,5.24.05,7.28.16v-1.3l-3.1-.31c-4-10.22-11-31.44-12.14-35.56H53.9c-1.12,3.65-1.66,5.21-7.22,17.83a178.34,178.34,0,0,1-8.77,17.78l-3.48.26V43c1.71,0,2.84-.1,5.67-.1,2.46,0,3.9.05,5.72.1v-1.3l-3.63-.26c1.34-4.8,2.73-8.5,3.63-10.89,3.9-.16,10.38-.05,11.77-.05,1,3.23,2.08,6.78,3.26,10.95-1.5.05-1.82.11-3.43.26Z" transform="translate(-7.58 -5.49)"/><path class="cls-1" d="M109.35,6.32c-2.57,0-4.87-.05-6.1-.11V7.52l3.53.31c1,5.42,1,14.71,1,15.64,0,9.12-.86,13.66-4.87,16.32a8.3,8.3,0,0,1-4.46,1.48c-3.78,0-6.19-1.94-7.92-5.6-1.12-2.35-1.5-5.11-1.5-8.86,0-3.39.27-8.76.27-12.15,0-1.46.16-4.59.27-6.88l4.22-.26V6.22c-2.35.05-5.35.16-10.69.16-4,0-5.46-.05-7.92-.16V7.52c1.76.16,2.35.21,4.23.26.27,5.48.32,9.12.32,14,0,7.3,0,9,.11,10.11.84,9.27,7.69,11.52,14.14,11.8,0,0,.36,0,.57,0s1,0,1,0c11.9-.75,13-9.51,13.36-12.4.21-1.72.32-3.44.37-5.11.43-9.69.59-13,1.6-18.35l3.53-.26V6.22C112.67,6.27,111.6,6.32,109.35,6.32Z" transform="translate(-7.58 -5.49)"/><path class="cls-1" d="M203.36,43c-1.93-.1-4.33-.16-8.83-.16-4,0-7.86.11-9.2.16v-1.3c1.5-.1,1.82-.16,3.53-.21a121.35,121.35,0,0,0,.43-12.31v-4.9c-2.14-.05-16.61-.16-19-.1v6.41c0,3,.11,7.77.32,10.79a26,26,0,0,1,3.53.31V43a87.5,87.5,0,0,0-8.88-.16c-2.19,0-5.83-.16-9,.16v-1.3l4.07-.31c.42-5.48.42-13.4.42-17.68,0-10.32-.16-13.29-.37-16-2.14-.1-2.19-.1-4.12-.31V6.22c3.1,0,7.16.11,9.36.11,2.83,0,5.73-.05,8.56-.11V7.47c-1.55.21-1.82.21-3.48.36-.11,3.13-.37,7-.37,9.39v5.52c2,.11,13.88.11,16.34.11,1.17,0,1.71,0,2.62-.05V18c0-4.43-.11-6.83-.32-10.27l-3.42-.26V6.22c4.76.11,8.72.11,10,.11,2.57,0,5.14-.05,7.92-.11V7.47c-1.82.21-2.19.21-4.07.31a157.73,157.73,0,0,0-.54,16.53v9c.05,4.59.16,5.84.32,8,2.2.21,2.25.21,4.17.42Z" transform="translate(-7.58 -5.49)"/><path class="cls-1" d="M228.28,6.79c8.56,0,9,7.45,9,17.52,0,1.72.05,3.28,0,4.74-.22,4.85-.86,8.5-2.67,10.74-1.29,1.62-3.16,2.45-5.94,2.45-4.44,0-6.84-1.61-8.23-5.16-1.18-2.87-1.45-7-1.45-12.56,0-1.1,0-9.54,1.5-12.88A7.92,7.92,0,0,1,228.28,6.79ZM208.65,24.57c0,11.84,7.6,19.14,19.85,19.14,13.91,0,19.25-9.44,19.2-19.4-.05-9.49-5.67-18.82-19.25-18.82C216.19,5.49,208.65,12.84,208.65,24.57Z" transform="translate(-7.58 -5.49)"/><path class="cls-1" d="M282.74,43C281.13,41.2,263,19.41,259.14,15.08c0,2.56,0,4.07.11,8.6a151.78,151.78,0,0,0,1.12,17.67l3.53.36V43c-2.35,0-3.59-.1-5.08-.1-.86,0-5.19.1-6.15.1v-1.3c1.61-.16,2.09-.21,3.53-.26,1.18-7.25,1.33-16.68,1.33-23.82,0-4.17-.11-6.36-.32-9.8-1.87-.1-2.57-.21-3.91-.31V6.22c2,.05,4.06.05,6.1.05,1.18,0,2.46.05,4.28-.05,5.29,6.36,10.75,12.67,16.1,18.93,3.75,4.38,4.28,5,6.9,7.66.05-7.56.05-17.67-1.07-25l-3.69-.31V6.22c1.34.05,1.93.05,3.42.05,2.68,0,5.51,0,8.19-.05V7.52l-3.69.31c-1.39,7.51-1.55,17.73-1.55,25.86,0,2,0,3.91.05,6.67L288.4,43Z" transform="translate(-7.58 -5.49)"/><path class="cls-1" d="M148.88,35.2A9.62,9.62,0,0,1,140,41.88c-10,0-11.72-11-11.72-17.41,0-2.24,0-17.31,11.13-17.31a10,10,0,0,1,8.23,4.59A7,7,0,0,1,148.2,15h1.39c-.05-1.1-.11-2.45-.11-4.07,0-1.3,0-1.67.11-5-2.14.05-3.26.05-4.23,0-1.44-.05-7.65-.47-8.93-.47-16.58,0-18.83,13.45-18.83,19.13,0,11.47,7.44,19.08,19.58,19.08,7.56,0,11.54-3.05,13.61-7.94Z" transform="translate(-7.58 -5.49)"/><path class="cls-1" d="M102.4,55.6c2.59,0,5,1.08,5,2.55s-2.38,2.55-5,2.55h-2.06V55.6Zm-4.68-1.5V66.27h2.62V62.21h2.06c4.08,0,7.66-1.72,7.66-4.06s-3.58-4.05-7.66-4.05Z" transform="translate(-7.58 -5.49)"/><path class="cls-1" d="M132.84,62.11h-6.6l3.3-5.43Zm-7.49,1.5h8.37l1.74,2.86,2.63-.45L130.46,54.1h-1.85L121,66l2.62.45Z" transform="translate(-7.58 -5.49)"/><path class="cls-1" d="M152.85,55.6h2.06c2.37,0,4.44,1,4.44,2.27s-2.13,2.27-4.44,2.27h-2.06ZM162,57.87c0-2.15-3.37-3.77-7.13-3.77h-4.69V66.27h2.63V61.64h2l6.81,4.83,2-1.07-6-4.08C159.81,60.92,162,59.64,162,57.87Z" transform="translate(-7.58 -5.49)"/><path class="cls-1" d="M179.43,54.1V66.27h-2.7V54.1Z" transform="translate(-7.58 -5.49)"/><path class="cls-1" d="M197.52,60.49c-2.31-.75-4.44-1.62-4.44-3.45s2.91-3.14,6-3.14a8.62,8.62,0,0,1,4.79,1.22l-1.77,1.12a5.87,5.87,0,0,0-3.19-.91c-1.67,0-3.19.71-3.19,1.72s1.24,1.44,3,2l1.25.4c2.13.71,4.43,1.62,4.43,3.45s-2.66,3.55-6.21,3.55a9.05,9.05,0,0,1-5.57-1.62l2.06-1.22A5.5,5.5,0,0,0,198.59,65c1.77,0,3.19-.87,3.19-2s-1.06-1.48-3-2.13Z" transform="translate(-7.58 -5.49)"/></svg>